<svg width="1466" height="299" viewBox="0 0 1466 299" fill="none" xmlns="http://www.w3.org/2000/svg">
<path d="M258.938 139.562C258.938 132.604 260.25 126.125 262.875 120.125C265.5 114.083 269.292 108.854 274.25 104.438C279.25 99.9792 285.333 96.4792 292.5 93.9375C299.708 91.3958 307.854 90.125 316.938 90.125C324.896 90.125 332.188 90.9375 338.812 92.5625C345.479 94.1458 351.667 96.5833 357.375 99.875L348.25 114.875C346.542 113.75 344.562 112.75 342.312 111.875C340.104 111 337.729 110.271 335.188 109.688C332.688 109.062 330.083 108.583 327.375 108.25C324.708 107.917 322.062 107.75 319.438 107.75C313.104 107.75 307.458 108.542 302.5 110.125C297.542 111.667 293.354 113.854 289.938 116.688C286.562 119.479 283.979 122.833 282.188 126.75C280.438 130.625 279.562 134.896 279.562 139.562C279.562 144.396 280.479 148.833 282.312 152.875C284.146 156.917 286.792 160.417 290.25 163.375C293.75 166.292 298 168.583 303 170.25C308.042 171.875 313.729 172.688 320.062 172.688C322.938 172.688 325.792 172.479 328.625 172.062C331.458 171.646 334.188 171.083 336.812 170.375C339.479 169.625 342.042 168.75 344.5 167.75C346.958 166.708 349.25 165.583 351.375 164.375L360.5 179.375C355.167 182.792 349 185.479 342 187.438C335 189.354 327.562 190.312 319.688 190.312C309.646 190.312 300.833 189.021 293.25 186.438C285.667 183.812 279.333 180.229 274.25 175.688C269.167 171.104 265.333 165.729 262.75 159.562C260.208 153.354 258.938 146.688 258.938 139.562ZM368.542 85.375H387.042V120.875C390.917 118.75 395.23 117.062 399.98 115.812C404.772 114.562 409.792 113.938 415.042 113.938C421.126 113.938 426.584 114.833 431.417 116.625C436.292 118.417 440.417 121 443.792 124.375C447.167 127.708 449.751 131.771 451.542 136.562C453.376 141.354 454.292 146.75 454.292 152.75V189H435.855V153.5C435.855 150 435.292 146.812 434.167 143.938C433.042 141.021 431.397 138.521 429.23 136.438C427.063 134.354 424.417 132.75 421.292 131.625C418.209 130.458 414.709 129.875 410.792 129.875C406.084 129.875 401.709 130.625 397.667 132.125C393.626 133.625 390.084 135.521 387.042 137.812V189H368.542V85.375ZM460.022 165.75C460.022 162.208 460.793 158.979 462.335 156.062C463.877 153.146 466.189 150.646 469.272 148.562C472.356 146.438 476.189 144.812 480.772 143.688C485.397 142.521 490.772 141.938 496.897 141.938C501.439 141.938 506.21 142.271 511.21 142.938C516.252 143.604 521.439 144.625 526.772 146C526.564 143.667 525.856 141.521 524.647 139.562C523.439 137.562 521.752 135.854 519.585 134.438C517.46 132.979 514.877 131.854 511.835 131.062C508.835 130.271 505.418 129.875 501.585 129.875C499.502 129.875 497.21 130 494.71 130.25C492.21 130.5 489.627 130.875 486.96 131.375C484.293 131.875 481.647 132.5 479.022 133.25C476.439 134 474.022 134.896 471.772 135.938L466.147 120.75C468.939 119.75 471.918 118.833 475.085 118C478.293 117.167 481.564 116.458 484.897 115.875C488.231 115.25 491.564 114.771 494.897 114.438C498.231 114.104 501.46 113.938 504.585 113.938C518.377 113.938 528.627 117.458 535.335 124.5C542.043 131.542 545.397 142.333 545.397 156.875V189H526.897V182.062C524.981 183.188 522.877 184.25 520.585 185.25C518.335 186.25 515.877 187.125 513.21 187.875C510.543 188.625 507.668 189.208 504.585 189.625C501.543 190.083 498.314 190.312 494.897 190.312C489.147 190.312 484.085 189.688 479.71 188.438C475.377 187.188 471.752 185.458 468.835 183.25C465.918 181.042 463.71 178.458 462.21 175.5C460.752 172.5 460.022 169.25 460.022 165.75ZM479.522 165.125C479.522 166.333 479.835 167.5 480.46 168.625C481.085 169.708 482.085 170.688 483.46 171.562C484.835 172.396 486.585 173.083 488.71 173.625C490.877 174.125 493.481 174.375 496.522 174.375C499.772 174.375 502.918 174.083 505.96 173.5C509.002 172.917 511.835 172.146 514.46 171.188C517.085 170.229 519.46 169.125 521.585 167.875C523.71 166.625 525.481 165.333 526.897 164V160.75C524.064 159.958 521.252 159.292 518.46 158.75C515.71 158.208 513.064 157.792 510.522 157.5C508.022 157.167 505.647 156.938 503.397 156.812C501.189 156.688 499.252 156.625 497.585 156.625C494.127 156.625 491.252 156.854 488.96 157.312C486.668 157.771 484.814 158.396 483.397 159.188C481.981 159.938 480.981 160.833 480.397 161.875C479.814 162.917 479.522 164 479.522 165.125ZM558.378 115.25H576.878V125.875C580.961 122.833 585.273 120.208 589.815 118C594.357 115.792 598.878 114.104 603.378 112.938L608.815 129.875C601.69 130.583 595.419 132.188 590.003 134.688C584.628 137.146 580.253 140.625 576.878 145.125V189H558.378V115.25ZM611.607 85.3125H630.107V189H611.607V85.3125ZM638.837 151.875C638.837 146.875 639.858 142.104 641.9 137.562C643.942 132.979 646.879 128.938 650.712 125.438C654.546 121.938 659.233 119.146 664.775 117.062C670.358 114.979 676.692 113.938 683.775 113.938C690.817 113.938 697.15 115 702.775 117.125C708.442 119.208 713.233 122.083 717.15 125.75C721.108 129.417 724.129 133.729 726.212 138.688C728.337 143.646 729.4 148.958 729.4 154.625C729.4 155.333 729.379 156.104 729.337 156.938C729.337 157.729 729.296 158.458 729.212 159.125H659.462C660.254 161.333 661.525 163.354 663.275 165.188C665.067 167.021 667.296 168.604 669.962 169.938C672.629 171.271 675.712 172.312 679.212 173.062C682.712 173.771 686.587 174.125 690.837 174.125C695.087 174.125 699.317 173.688 703.525 172.812C707.733 171.896 711.754 170.75 715.587 169.375L721.837 183.5C719.421 184.625 716.962 185.625 714.462 186.5C712.004 187.333 709.421 188.042 706.712 188.625C704.046 189.167 701.233 189.583 698.275 189.875C695.358 190.167 692.275 190.312 689.025 190.312C680.733 190.312 673.462 189.312 667.212 187.312C660.962 185.312 655.733 182.583 651.525 179.125C647.317 175.667 644.15 171.604 642.025 166.938C639.9 162.271 638.837 157.25 638.837 151.875ZM709.775 144.688C709.108 142.646 708.067 140.75 706.65 139C705.275 137.208 703.546 135.667 701.462 134.375C699.379 133.042 696.962 132 694.212 131.25C691.462 130.5 688.442 130.125 685.15 130.125C681.65 130.125 678.462 130.521 675.587 131.312C672.712 132.104 670.192 133.167 668.025 134.5C665.858 135.833 664.046 137.375 662.587 139.125C661.171 140.875 660.129 142.729 659.462 144.688H709.775ZM740.755 166.375C745.755 169.375 751.255 171.583 757.255 173C763.255 174.417 769.401 175.125 775.693 175.125C779.943 175.125 783.484 174.833 786.318 174.25C789.151 173.667 791.422 172.917 793.13 172C794.838 171.083 796.047 170.042 796.755 168.875C797.463 167.708 797.818 166.521 797.818 165.312C797.818 163.562 797.047 162.062 795.505 160.812C794.005 159.562 791.505 158.938 788.005 158.938C786.38 158.938 784.63 159.042 782.755 159.25C780.88 159.458 778.901 159.688 776.818 159.938C774.776 160.146 772.63 160.354 770.38 160.562C768.172 160.771 765.922 160.875 763.63 160.875C758.63 160.875 754.359 160.333 750.818 159.25C747.318 158.167 744.463 156.688 742.255 154.812C740.047 152.938 738.443 150.729 737.443 148.188C736.443 145.604 735.943 142.833 735.943 139.875C735.943 136.125 736.818 132.667 738.568 129.5C740.318 126.333 742.818 123.604 746.068 121.312C749.318 118.979 753.234 117.167 757.818 115.875C762.443 114.583 767.588 113.938 773.255 113.938C776.213 113.938 779.297 114.125 782.505 114.5C785.755 114.833 788.943 115.292 792.068 115.875C795.193 116.458 798.193 117.146 801.068 117.938C803.943 118.688 806.484 119.5 808.693 120.375L802.88 134.75C798.172 133 793.463 131.625 788.755 130.625C784.088 129.583 779.276 129.062 774.318 129.062C770.859 129.062 767.922 129.333 765.505 129.875C763.13 130.375 761.193 131.062 759.693 131.938C758.193 132.771 757.088 133.75 756.38 134.875C755.713 135.958 755.38 137.104 755.38 138.312C755.38 139.188 755.547 139.979 755.88 140.688C756.255 141.396 756.838 142.021 757.63 142.562C758.463 143.062 759.526 143.458 760.818 143.75C762.151 144 763.776 144.125 765.693 144.125C767.443 144.125 769.297 144.021 771.255 143.812C773.213 143.604 775.255 143.396 777.38 143.188C779.505 142.938 781.693 142.708 783.943 142.5C786.234 142.292 788.568 142.188 790.943 142.188C795.359 142.188 799.213 142.708 802.505 143.75C805.838 144.792 808.588 146.25 810.755 148.125C812.922 150 814.547 152.208 815.63 154.75C816.713 157.292 817.255 160.062 817.255 163.062C817.255 166.938 816.359 170.542 814.568 173.875C812.776 177.208 810.109 180.104 806.568 182.562C803.026 184.979 798.609 186.875 793.318 188.25C788.068 189.625 781.984 190.312 775.068 190.312C770.818 190.312 766.713 190.042 762.755 189.5C758.797 189 755.026 188.312 751.443 187.438C747.859 186.521 744.484 185.458 741.318 184.25C738.193 183.042 735.338 181.75 732.755 180.375L740.755 166.375ZM855.715 91.3125H891.527C901.986 91.3125 911.069 92.4375 918.777 94.6875C926.486 96.9375 932.861 100.167 937.902 104.375C942.986 108.542 946.757 113.625 949.215 119.625C951.715 125.583 952.965 132.292 952.965 139.75C952.965 146.833 951.736 153.396 949.277 159.438C946.819 165.438 943.069 170.646 938.027 175.062C932.986 179.438 926.611 182.875 918.902 185.375C911.194 187.833 902.111 189.062 891.652 189.062L855.715 189V91.3125ZM896.402 171.875C902.319 171.875 907.507 171.125 911.965 169.625C916.423 168.083 920.132 165.917 923.09 163.125C926.09 160.333 928.34 156.958 929.84 153C931.34 149.042 932.09 144.625 932.09 139.75C932.09 134.958 931.34 130.646 929.84 126.812C928.34 122.938 926.09 119.667 923.09 117C920.132 114.292 916.423 112.208 911.965 110.75C907.507 109.292 902.319 108.562 896.402 108.562H875.527V171.875H896.402ZM994.57 130.625H956.758V115.25H1028.88L983.383 173.625H1026.38V189H949.383L994.57 130.625ZM1029.24 165.75C1029.24 162.208 1030.01 158.979 1031.55 156.062C1033.09 153.146 1035.4 150.646 1038.49 148.562C1041.57 146.438 1045.4 144.812 1049.99 143.688C1054.61 142.521 1059.99 141.938 1066.11 141.938C1070.65 141.938 1075.42 142.271 1080.42 142.938C1085.47 143.604 1090.65 144.625 1095.99 146C1095.78 143.667 1095.07 141.521 1093.86 139.562C1092.65 137.562 1090.97 135.854 1088.8 134.438C1086.67 132.979 1084.09 131.854 1081.05 131.062C1078.05 130.271 1074.63 129.875 1070.8 129.875C1068.72 129.875 1066.42 130 1063.92 130.25C1061.42 130.5 1058.84 130.875 1056.17 131.375C1053.51 131.875 1050.86 132.5 1048.24 133.25C1045.65 134 1043.24 134.896 1040.99 135.938L1035.36 120.75C1038.15 119.75 1041.13 118.833 1044.3 118C1047.51 117.167 1050.78 116.458 1054.11 115.875C1057.45 115.25 1060.78 114.771 1064.11 114.438C1067.45 114.104 1070.67 113.938 1073.8 113.938C1087.59 113.938 1097.84 117.458 1104.55 124.5C1111.26 131.542 1114.61 142.333 1114.61 156.875V189H1096.11V182.062C1094.2 183.188 1092.09 184.25 1089.8 185.25C1087.55 186.25 1085.09 187.125 1082.42 187.875C1079.76 188.625 1076.88 189.208 1073.8 189.625C1070.76 190.083 1067.53 190.312 1064.11 190.312C1058.36 190.312 1053.3 189.688 1048.92 188.438C1044.59 187.188 1040.97 185.458 1038.05 183.25C1035.13 181.042 1032.92 178.458 1031.42 175.5C1029.97 172.5 1029.24 169.25 1029.24 165.75ZM1048.74 165.125C1048.74 166.333 1049.05 167.5 1049.67 168.625C1050.3 169.708 1051.3 170.688 1052.67 171.562C1054.05 172.396 1055.8 173.083 1057.92 173.625C1060.09 174.125 1062.7 174.375 1065.74 174.375C1068.99 174.375 1072.13 174.083 1075.17 173.5C1078.22 172.917 1081.05 172.146 1083.67 171.188C1086.3 170.229 1088.67 169.125 1090.8 167.875C1092.92 166.625 1094.7 165.333 1096.11 164V160.75C1093.28 159.958 1090.47 159.292 1087.67 158.75C1084.92 158.208 1082.28 157.792 1079.74 157.5C1077.24 157.167 1074.86 156.938 1072.61 156.812C1070.4 156.688 1068.47 156.625 1066.8 156.625C1063.34 156.625 1060.47 156.854 1058.17 157.312C1055.88 157.771 1054.03 158.396 1052.61 159.188C1051.2 159.938 1050.2 160.833 1049.61 161.875C1049.03 162.917 1048.74 164 1048.74 165.125ZM1121.9 152.438C1121.9 146.562 1123.01 141.271 1125.22 136.562C1127.43 131.812 1130.47 127.771 1134.34 124.438C1138.26 121.062 1142.88 118.479 1148.22 116.688C1153.59 114.854 1159.4 113.938 1165.65 113.938C1168.32 113.938 1170.95 114.104 1173.53 114.438C1176.15 114.771 1178.65 115.229 1181.03 115.812C1183.45 116.396 1185.7 117.104 1187.78 117.938C1189.9 118.729 1191.78 119.604 1193.4 120.562V85.3125H1211.9V189H1193.4V182.062C1191.78 183.188 1189.86 184.25 1187.65 185.25C1185.45 186.25 1183.07 187.125 1180.53 187.875C1177.99 188.625 1175.34 189.208 1172.59 189.625C1169.88 190.083 1167.2 190.312 1164.53 190.312C1158.28 190.312 1152.53 189.396 1147.28 187.562C1142.07 185.729 1137.59 183.146 1133.84 179.812C1130.09 176.479 1127.15 172.5 1125.03 167.875C1122.95 163.208 1121.9 158.062 1121.9 152.438ZM1141.34 152.438C1141.34 155.396 1141.93 158.188 1143.09 160.812C1144.3 163.438 1146.01 165.75 1148.22 167.75C1150.47 169.708 1153.15 171.271 1156.28 172.438C1159.45 173.562 1162.99 174.125 1166.9 174.125C1169.4 174.125 1171.9 173.896 1174.4 173.438C1176.9 172.938 1179.3 172.25 1181.59 171.375C1183.93 170.5 1186.09 169.438 1188.09 168.188C1190.13 166.938 1191.9 165.542 1193.4 164V138.438C1191.53 136.938 1189.55 135.667 1187.47 134.625C1185.38 133.583 1183.26 132.729 1181.09 132.062C1178.93 131.396 1176.74 130.917 1174.53 130.625C1172.32 130.292 1170.18 130.125 1168.09 130.125C1163.84 130.125 1160.05 130.708 1156.72 131.875C1153.43 133 1150.63 134.562 1148.34 136.562C1146.09 138.562 1144.36 140.917 1143.15 143.625C1141.95 146.333 1141.34 149.271 1141.34 152.438ZM1223.07 115.188H1241.51V151.188C1241.51 154.604 1241.89 157.729 1242.64 160.562C1243.39 163.354 1244.66 165.75 1246.45 167.75C1248.28 169.75 1250.7 171.312 1253.7 172.438C1256.74 173.521 1260.51 174.062 1265.01 174.062C1267.14 174.062 1269.28 173.833 1271.45 173.375C1273.66 172.917 1275.76 172.292 1277.76 171.5C1279.76 170.667 1281.61 169.688 1283.32 168.562C1285.07 167.438 1286.57 166.208 1287.82 164.875V115.188H1306.32V189H1287.82V182.688C1283.28 185.396 1278.72 187.333 1274.14 188.5C1269.55 189.667 1265.2 190.25 1261.07 190.25C1254.32 190.25 1248.53 189.438 1243.7 187.812C1238.91 186.188 1234.97 183.833 1231.89 180.75C1228.84 177.625 1226.61 173.812 1225.2 169.312C1223.78 164.771 1223.07 159.604 1223.07 153.812V115.188Z" fill="black"/>
<mask id="path-2-inside-1_6_2" fill="white">
<path fill-rule="evenodd" clip-rule="evenodd" d="M51 61.9999H195L209 61.9999V216H169V127.102L67.2518 228.851L39.0067 200.605L137.612 102H51V61.9999Z"/>
</mask>
<path d="M195 61.9999L195 51.9999H195V61.9999ZM51 61.9999V51.9999H41V61.9999H51ZM209 61.9999H219V52L209 51.9999L209 61.9999ZM209 216V226H219V216H209ZM169 216H159V226H169V216ZM169 127.102H179V102.96L161.929 120.031L169 127.102ZM67.2518 228.851L60.1807 235.922L67.2518 242.993L74.3229 235.922L67.2518 228.851ZM39.0067 200.605L31.9356 193.534L24.8646 200.605L31.9356 207.677L39.0067 200.605ZM137.612 102L144.683 109.071L161.754 91.9999H137.612V102ZM51 102H41V112H51V102ZM195 51.9999H51V71.9999H195V51.9999ZM209 51.9999L195 51.9999L195 71.9999L209 71.9999L209 51.9999ZM219 216V61.9999H199V216H219ZM169 226H209V206H169V226ZM159 127.102V216H179V127.102H159ZM161.929 120.031L60.1807 221.78L74.3229 235.922L176.071 134.173L161.929 120.031ZM74.3229 221.779L46.0778 193.534L31.9356 207.677L60.1807 235.922L74.3229 221.779ZM46.0778 207.677L144.683 109.071L130.541 94.9288L31.9356 193.534L46.0778 207.677ZM51 112H137.612V91.9999H51V112ZM41 61.9999V102H61V61.9999H41Z" fill="black" mask="url(#path-2-inside-1_6_2)"/>
</svg>
